<svg width="188" height="25" viewBox="0 0 188 25" fill="none" xmlns="http://www.w3.org/2000/svg">
<path d="M2.94118 0.332069V24.6205H0V0.332069H2.94118Z" fill="black"/>
<path d="M11.2577 13.6622V24.6205H8.45885V6.40417H11.1628V9.25047H11.4C11.827 8.32543 12.4753 7.58223 13.345 7.02087C14.2147 6.45161 15.3374 6.16698 16.7131 6.16698C17.9465 6.16698 19.0257 6.41999 19.9508 6.926C20.8758 7.4241 21.5953 8.18311 22.1092 9.20303C22.6231 10.2151 22.8801 11.4959 22.8801 13.0455V24.6205H20.0812V13.2353C20.0812 11.8042 19.7096 10.6894 18.9664 9.89089C18.2232 9.08444 17.2033 8.68121 15.9067 8.68121C15.0132 8.68121 14.2147 8.87492 13.511 9.26233C12.8153 9.64975 12.2658 10.2151 11.8625 10.9583C11.4593 11.7015 11.2577 12.6028 11.2577 13.6622Z" fill="black"/>
<path d="M35.3949 25C33.6871 25 32.2166 24.5968 30.9832 23.7903C29.7498 22.9839 28.801 21.873 28.1369 20.4578C27.4727 19.0425 27.1407 17.4257 27.1407 15.6072C27.1407 13.7571 27.4806 12.1244 28.1606 10.7092C28.8484 9.28605 29.8051 8.17521 31.0306 7.37666C32.264 6.57021 33.703 6.16698 35.3475 6.16698C36.6283 6.16698 37.7826 6.40417 38.8105 6.87856C39.8383 7.35294 40.6803 8.01708 41.3366 8.87097C41.9928 9.72486 42.4 10.7211 42.5581 11.8596H39.7593C39.5458 11.0294 39.0714 10.2941 38.3361 9.6537C37.6087 9.00537 36.6283 8.68121 35.3949 8.68121C34.3038 8.68121 33.3472 8.96584 32.5249 9.5351C31.7105 10.0965 31.0741 10.891 30.6155 11.9189C30.1648 12.9388 29.9395 14.1366 29.9395 15.5123C29.9395 16.9197 30.1609 18.1452 30.6037 19.1888C31.0543 20.2324 31.6868 21.0429 32.5012 21.62C33.3234 22.1972 34.288 22.4858 35.3949 22.4858C36.1223 22.4858 36.7825 22.3593 37.3755 22.1063C37.9685 21.8533 38.4705 21.4896 38.8816 21.0152C39.2928 20.5408 39.5853 19.9715 39.7593 19.3074H42.5581C42.4 20.3827 42.0086 21.3512 41.384 22.213C40.7673 23.0669 39.949 23.7468 38.9291 24.2528C37.9171 24.7509 36.739 25 35.3949 25Z" fill="black"/>
<path d="M49.4485 0.332069V24.6205H46.6497V0.332069H49.4485Z" fill="black"/>
<path d="M66.0549 17.1727V6.40417H68.8538V24.6205H66.0549V21.537H65.8652C65.4382 22.462 64.7741 23.2487 63.8727 23.8971C62.9714 24.5375 61.8329 24.8577 60.4572 24.8577C59.3187 24.8577 58.3067 24.6086 57.4211 24.1105C56.5356 23.6045 55.8398 22.8455 55.3338 21.8335C54.8278 20.8136 54.5748 19.5288 54.5748 17.9791V6.40417H57.3737V17.7894C57.3737 19.1176 57.7453 20.1771 58.4885 20.9677C59.2396 21.7584 60.1963 22.1537 61.3585 22.1537C62.0543 22.1537 62.7619 21.9758 63.4814 21.62C64.2088 21.2642 64.8176 20.7187 65.3078 19.9834C65.8059 19.2481 66.0549 18.3112 66.0549 17.1727Z" fill="black"/>
<path d="M80.8586 25C79.3406 25 78.0005 24.6165 76.8382 23.8496C75.676 23.0748 74.7668 21.9837 74.1105 20.5764C73.4543 19.1611 73.1262 17.4889 73.1262 15.5598C73.1262 13.6464 73.4543 11.9861 74.1105 10.5787C74.7668 9.17141 75.6799 8.08428 76.8501 7.31736C78.0202 6.55044 79.3722 6.16698 80.9061 6.16698C82.092 6.16698 83.0289 6.36464 83.7168 6.75996C84.4125 7.14738 84.9423 7.59013 85.306 8.08823C85.6776 8.57843 85.9662 8.98166 86.1717 9.29791H86.4089V0.332069H89.2078V24.6205H86.5038V21.8216H86.1717C85.9662 22.1537 85.6736 22.5727 85.2941 23.0787C84.9146 23.5768 84.373 24.0236 83.6693 24.4189C82.9657 24.8063 82.0288 25 80.8586 25ZM81.2381 22.4858C82.3608 22.4858 83.3096 22.1932 84.0844 21.6082C84.8593 21.0152 85.4483 20.1969 85.8515 19.1532C86.2547 18.1017 86.4563 16.888 86.4563 15.5123C86.4563 14.1524 86.2587 12.9625 85.8634 11.9426C85.4681 10.9148 84.883 10.1162 84.1082 9.54696C83.3333 8.9698 82.3767 8.68121 81.2381 8.68121C80.0522 8.68121 79.0639 8.98561 78.2732 9.5944C77.4905 10.1953 76.9015 11.0136 76.5062 12.0493C76.1187 13.0772 75.925 14.2315 75.925 15.5123C75.925 16.809 76.1227 17.987 76.518 19.0465C76.9212 20.098 77.5142 20.9361 78.297 21.5607C79.0876 22.1774 80.068 22.4858 81.2381 22.4858Z" fill="black"/>
<path d="M102.36 25C100.605 25 99.0908 24.6126 97.8178 23.8378C96.5528 23.055 95.5764 21.9639 94.8885 20.5645C94.2086 19.1572 93.8686 17.5206 93.8686 15.6546C93.8686 13.7887 94.2086 12.1442 94.8885 10.7211C95.5764 9.29001 96.533 8.17521 97.7585 7.37666C98.9919 6.57021 100.431 6.16698 102.075 6.16698C103.024 6.16698 103.961 6.32511 104.886 6.64137C105.811 6.95762 106.653 7.47154 107.412 8.18311C108.171 8.88678 108.776 9.81973 109.227 10.982C109.677 12.1442 109.903 13.5753 109.903 15.2751V16.4611H95.861V14.0417H107.056C107.056 13.0139 106.851 12.0968 106.44 11.2903C106.037 10.4839 105.459 9.84741 104.708 9.38093C103.965 8.91445 103.087 8.68121 102.075 8.68121C100.961 8.68121 99.996 8.95794 99.1817 9.51138C98.3752 10.0569 97.7546 10.7685 97.3197 11.6461C96.8849 12.5237 96.6674 13.4646 96.6674 14.4687V16.0816C96.6674 17.4573 96.9046 18.6235 97.379 19.5802C97.8613 20.5289 98.5294 21.2524 99.3833 21.7505C100.237 22.2407 101.229 22.4858 102.36 22.4858C103.095 22.4858 103.759 22.383 104.352 22.1774C104.953 21.9639 105.471 21.6477 105.906 21.2287C106.341 20.8017 106.677 20.272 106.914 19.6395L109.618 20.3985C109.333 21.3156 108.855 22.1221 108.183 22.8178C107.511 23.5057 106.681 24.0433 105.693 24.4307C104.704 24.8102 103.593 25 102.36 25Z" fill="black"/>
<path d="M134.784 8.52704H130.349C130.222 7.79965 129.989 7.15528 129.649 6.59393C129.309 6.02467 128.886 5.54238 128.38 5.14706C127.874 4.75174 127.297 4.45525 126.648 4.25759C126.008 4.05202 125.316 3.94924 124.573 3.94924C123.253 3.94924 122.083 4.28131 121.063 4.94545C120.043 5.60168 119.244 6.56626 118.667 7.83918C118.09 9.10421 117.801 10.6499 117.801 12.4763C117.801 14.3343 118.09 15.8997 118.667 17.1727C119.252 18.4377 120.051 19.3944 121.063 20.0427C122.083 20.6831 123.249 21.0033 124.561 21.0033C125.289 21.0033 125.969 20.9084 126.601 20.7187C127.241 20.521 127.815 20.2324 128.321 19.8529C128.835 19.4734 129.265 19.007 129.613 18.4535C129.969 17.9001 130.214 17.2676 130.349 16.556L134.784 16.5797C134.618 17.734 134.258 18.8172 133.705 19.8292C133.159 20.8412 132.444 21.7347 131.558 22.5095C130.673 23.2764 129.637 23.8773 128.451 24.3121C127.265 24.7391 125.949 24.9526 124.502 24.9526C122.367 24.9526 120.462 24.4584 118.786 23.4701C117.109 22.4818 115.789 21.0547 114.824 19.1888C113.86 17.3229 113.378 15.0854 113.378 12.4763C113.378 9.85927 113.864 7.62176 114.836 5.76376C115.809 3.89785 117.133 2.47075 118.809 1.48245C120.485 0.494149 122.383 0 124.502 0C125.854 0 127.111 0.189753 128.273 0.569259C129.435 0.948767 130.471 1.50617 131.38 2.24146C132.29 2.96885 133.037 3.86227 133.622 4.92173C134.215 5.97328 134.602 7.17505 134.784 8.52704Z" fill="black"/>
<path d="M146.57 24.9763C144.791 24.9763 143.249 24.5849 141.944 23.8022C140.64 23.0194 139.628 21.9244 138.908 20.5171C138.197 19.1097 137.841 17.4652 137.841 15.5835C137.841 13.7018 138.197 12.0533 138.908 10.638C139.628 9.2228 140.64 8.12381 141.944 7.34108C143.249 6.55835 144.791 6.16698 146.57 6.16698C148.349 6.16698 149.89 6.55835 151.195 7.34108C152.499 8.12381 153.507 9.2228 154.219 10.638C154.939 12.0533 155.298 13.7018 155.298 15.5835C155.298 17.4652 154.939 19.1097 154.219 20.5171C153.507 21.9244 152.499 23.0194 151.195 23.8022C149.89 24.5849 148.349 24.9763 146.57 24.9763ZM146.593 21.537C147.558 21.537 148.364 21.2721 149.013 20.7424C149.661 20.2048 150.143 19.4853 150.46 18.584C150.784 17.6826 150.946 16.6785 150.946 15.5716C150.946 14.4568 150.784 13.4488 150.46 12.5474C150.143 11.6382 149.661 10.9148 149.013 10.3771C148.364 9.8395 147.558 9.57068 146.593 9.57068C145.605 9.57068 144.783 9.8395 144.127 10.3771C143.478 10.9148 142.992 11.6382 142.668 12.5474C142.352 13.4488 142.193 14.4568 142.193 15.5716C142.193 16.6785 142.352 17.6826 142.668 18.584C142.992 19.4853 143.478 20.2048 144.127 20.7424C144.783 21.2721 145.605 21.537 146.593 21.537Z" fill="black"/>
<path d="M158.942 24.6205V6.40417H163.105V9.44023H163.295C163.627 8.38868 164.196 7.57827 165.002 7.00901C165.817 6.43185 166.746 6.14326 167.789 6.14326C168.027 6.14326 168.291 6.15512 168.584 6.17884C168.884 6.19465 169.133 6.22233 169.331 6.26186V10.2111C169.149 10.1478 168.861 10.0925 168.465 10.0451C168.078 9.98972 167.702 9.96205 167.339 9.96205C166.556 9.96205 165.852 10.132 165.228 10.472C164.611 10.8041 164.125 11.2666 163.769 11.8596C163.413 12.4526 163.235 13.1365 163.235 13.9113V24.6205H158.942Z" fill="black"/>
<path d="M179.498 24.9763C177.671 24.9763 176.094 24.5968 174.766 23.8378C173.445 23.0708 172.429 21.9877 171.718 20.5882C171.006 19.1809 170.65 17.5245 170.65 15.6191C170.65 13.7453 171.006 12.1007 171.718 10.6855C172.437 9.26233 173.441 8.15544 174.73 7.3648C176.019 6.56626 177.533 6.16698 179.272 6.16698C180.395 6.16698 181.455 6.34883 182.451 6.71252C183.455 7.06831 184.34 7.62176 185.107 8.37286C185.882 9.12397 186.491 10.0806 186.934 11.2429C187.376 12.3972 187.598 13.7729 187.598 15.37V16.6864H172.667V13.7927H183.483C183.475 12.9704 183.297 12.2391 182.949 11.5987C182.601 10.9503 182.115 10.4404 181.49 10.0688C180.873 9.69718 180.154 9.51138 179.332 9.51138C178.454 9.51138 177.683 9.72486 177.019 10.1518C176.355 10.5708 175.837 11.1243 175.465 11.8121C175.102 12.4921 174.916 13.2392 174.908 14.0536V16.5797C174.908 17.6392 175.102 18.5484 175.489 19.3074C175.877 20.0585 176.418 20.6357 177.114 21.0389C177.81 21.4342 178.624 21.6319 179.557 21.6319C180.182 21.6319 180.747 21.5449 181.253 21.371C181.759 21.1891 182.198 20.9243 182.569 20.5764C182.941 20.2285 183.222 19.7976 183.411 19.2837L187.42 19.7343C187.167 20.7938 186.685 21.7188 185.973 22.5095C185.269 23.2922 184.368 23.901 183.269 24.3359C182.17 24.7628 180.913 24.9763 179.498 24.9763Z" fill="black"/>
</svg>
